<?xml version="1.0" encoding="UTF-8" standalone="no"?>
<svg viewBox="0 0 701.00159 701.00159" version="1.1" id="svg162" width="701.00159" height="701.00159"
   xmlns="http://www.w3.org/2000/svg" xmlns:svg="http://www.w3.org/2000/svg">
   <defs id="defs166" />
   <!--!Font Awesome Pro 6.6.0 by @fontawesome - https://fontawesome.com License - https://fontawesome.com/license (Commercial License) Copyright 2024 Fonticons, Inc.-->
   <circle style="fill:#000000;fill-opacity:1;stroke:#000000;stroke-width:1.00157;stroke-dasharray:none" id="path3166"
      cx="350.50079" cy="350.50079" r="350" />
   <g id="layer1" transform="translate(92.331282,93.41603)">
      <path class="fa-primary"
         d="m 409.2,201 c -5.4,6.8 -9.2,15 -9.2,23.7 v 24 c 0,6.6 2.8,12.8 7.2,17.7 20.4,22.7 32.8,52.7 32.8,85.6 0,70.7 -57.3,128 -128,128 H 196 C 87.8,480 0,392.2 0,284 v -5.4 C 0,266.1 10.1,256 22.6,256 c 6,0 11.8,2.4 16,6.6 L 54,278 c 6.2,6.2 15.2,8.5 23.6,6.1 l 172.8,-49.4 c 10.4,-3 15.7,-14.5 7.8,-21.7 -21,-19 -34.1,-46.5 -34.1,-77 0,-57.4 46.6,-104 104,-104 57.4,0 104,46.6 104,104 0,24.6 -8.5,47.2 -22.8,65 z M 368,136 a 24,24 0 1 0 -48,0 24,24 0 1 0 48,0 z m -27.4,160.9 c 0.5,-8.8 -6.2,-16.4 -15,-16.9 -8.8,-0.5 -16.4,6.2 -16.9,15 -2.4,41.2 -32.6,79 -77.3,90.1 -40.3,10.1 -80.5,-4.6 -103.7,-33.5 -5.5,-6.9 -15.6,-8 -22.5,-2.5 -6.9,5.5 -8,15.6 -2.5,22.5 31.1,38.7 84,57.6 136.4,44.5 58,-14.5 98.3,-63.8 101.5,-119.3 z"
         id="path160" style="fill:#ffcb11;fill-opacity:1;stroke-width:1.00157;stroke-dasharray:none" />
      <path class="fa-secondary" opacity=".4"
         d="m 400.2,220.8 c -0.1,0.6 -0.1,1.1 -0.2,1.6 0,0.5 -0.1,1 -0.1,1.5 7,0 13.9,0 20.9,0 50.3,0 91.1,-40.8 91.1,-91.1 0,-6.4 -5.2,-11.4 -11.4,-11.4 -0.5,0 -1,0 -1.4,0.1 l -35.2,4.5 c -10.5,1.3 -21.2,1.3 -31.8,0 l -0.6,-0.1 c 0.3,3.3 0.5,6.7 0.5,10.1 0,24.6 -8.5,47.2 -22.8,65 -0.7,0.8 -1.3,1.7 -1.9,2.5 -0.6,0.8 -1.2,1.8 -1.7,2.7 -1.1,1.8 -2.1,3.7 -2.9,5.6 -0.8,1.9 -1.5,3.9 -1.9,6 -0.1,0.5 -0.2,1 -0.3,1.5 -0.1,0.5 -0.2,1 -0.2,1.5 z"
         id="path158" style="opacity:1;fill:#f63600;fill-opacity:1" />
   </g>
</svg>